<svg xmlns="http://www.w3.org/2000/svg" viewBox="0 0 64 64"><rect width="64" height="64" rx="0" fill="#131F3C"/><ellipse cx="32" cy="32" rx="28.00" ry="19.00" fill="#FAFAF7"/><path fill="#131F3C" d="M11.199499999999997 26.812999999999995Q10.989499999999996 26.581999999999994 11.199499999999997 26.266999999999996Q11.703499999999996 25.594999999999995 12.616999999999997 25.090999999999994Q13.530499999999996 24.586999999999996 14.674999999999997 24.292999999999996Q15.819499999999998 23.998999999999995 17.016499999999997 23.998999999999995Q18.990499999999997 23.998999999999995 20.397499999999997 24.513499999999993Q21.804499999999997 25.027999999999995 22.549999999999997 25.9625Q23.295499999999997 26.897 23.295499999999997 28.156999999999996Q23.295499999999997 29.059999999999995 22.707499999999996 29.962999999999994Q22.119499999999995 30.865999999999996 20.9435 31.222999999999995Q20.7125 31.306999999999995 20.701999999999998 31.443499999999997Q20.691499999999998 31.58 20.9225 31.663999999999994Q21.804499999999997 31.958 22.444999999999997 32.4935Q23.085499999999996 33.028999999999996 23.431999999999995 33.70099999999999Q23.778499999999998 34.373 23.778499999999998 35.15Q23.778499999999998 36.766999999999996 23.0015 37.8485Q22.2245 38.93 20.670499999999997 39.4655Q19.116499999999995 40.001 16.764499999999998 40.001Q15.483499999999998 40.001 14.265499999999998 39.6335Q13.047499999999998 39.266 12.081499999999998 38.6255Q11.115499999999997 37.985 10.569499999999998 37.166Q10.422499999999998 36.934999999999995 10.474999999999998 36.724999999999994Q10.527499999999996 36.51499999999999 10.737499999999997 36.388999999999996L12.858499999999998 34.919Q13.068499999999997 34.793 13.204999999999997 34.793Q13.341499999999996 34.793 13.425499999999998 34.897999999999996Q14.076499999999998 35.549 14.601499999999998 35.94799999999999Q15.126499999999997 36.346999999999994 15.693499999999997 36.535999999999994Q16.260499999999997 36.724999999999994 17.016499999999997 36.724999999999994Q18.003499999999995 36.724999999999994 18.549499999999995 36.3155Q19.095499999999998 35.906 19.095499999999998 35.233999999999995Q19.095499999999998 34.73 18.822499999999998 34.352Q18.5495 33.974 18.045499999999997 33.753499999999995Q17.5415 33.532999999999994 16.8695 33.51199999999999L15.105499999999997 33.47Q14.664499999999997 33.47 14.664499999999997 33.113V30.571999999999996Q14.664499999999997 30.278 15.105499999999997 30.214999999999996L16.512499999999996 30.130999999999997Q17.184499999999996 30.089 17.656999999999996 29.868499999999997Q18.129499999999997 29.647999999999996 18.391999999999996 29.290999999999997Q18.6545 28.933999999999997 18.6545 28.471999999999994Q18.6545 28.114999999999995 18.423499999999997 27.820999999999994Q18.192499999999995 27.526999999999994 17.803999999999995 27.358999999999995Q17.415499999999998 27.190999999999995 16.932499999999997 27.190999999999995Q16.0295 27.190999999999995 15.315499999999998 27.526999999999994Q14.601499999999998 27.862999999999996 13.740499999999997 28.681999999999995Q13.593499999999997 28.828999999999994 13.498999999999997 28.839499999999994Q13.404499999999997 28.849999999999994 13.236499999999998 28.702999999999996L11.199499999999997 26.812999999999995Z M31.9685 23.977999999999994Q33.4805 23.977999999999994 34.7405 24.576499999999996Q36.0005 25.174999999999997 36.9245 26.266999999999996Q37.8485 27.358999999999995 38.363 28.828999999999994Q38.8775 30.298999999999996 38.8775 32.041999999999994Q38.8775 34.352 37.9955 36.137Q37.1135 37.922 35.5595 38.9405Q34.0055 39.958999999999996 31.9685 39.958999999999996Q29.9315 39.958999999999996 28.356499999999997 38.9405Q26.781499999999998 37.922 25.899499999999996 36.137Q25.0175 34.352 25.0175 32.041999999999994Q25.0175 30.298999999999996 25.531999999999996 28.828999999999994Q26.046499999999998 27.358999999999995 26.980999999999998 26.266999999999996Q27.915499999999998 25.174999999999997 29.186 24.576499999999996Q30.4565 23.977999999999994 31.9685 23.977999999999994ZM31.947499999999998 36.683Q32.7245 36.683 33.186499999999995 36.2315Q33.6485 35.779999999999994 33.848 34.77199999999999Q34.0475 33.763999999999996 34.0475 32.062999999999995Q34.0475 30.298999999999996 33.8375 29.238499999999995Q33.6275 28.177999999999997 33.165499999999994 27.694999999999997Q32.7035 27.211999999999996 31.947499999999998 27.211999999999996Q31.191499999999998 27.211999999999996 30.729499999999998 27.694999999999997Q30.2675 28.177999999999997 30.057499999999997 29.248999999999995Q29.8475 30.319999999999997 29.8475 32.062999999999995Q29.8475 33.742999999999995 30.057499999999997 34.7615Q30.2675 35.779999999999994 30.729499999999998 36.2315Q31.191499999999998 36.683 31.947499999999998 36.683Z M51.5615 24.208999999999996Q52.0235 24.208999999999996 52.118 24.324499999999997Q52.212500000000006 24.439999999999998 52.191500000000005 24.817999999999998L52.0655 27.505999999999997Q52.0445 27.778999999999996 51.908 27.883999999999997Q51.7715 27.988999999999997 51.477500000000006 27.988999999999997H45.1985Q44.7785 27.988999999999997 44.7575 28.366999999999997L44.5895 29.773999999999994Q44.5685 29.962999999999994 44.673500000000004 30.036499999999997Q44.7785 30.109999999999996 44.9255 30.067999999999998Q45.7655 29.836999999999996 46.3325 29.731999999999996Q46.8995 29.626999999999995 47.6135 29.626999999999995Q49.3145 29.626999999999995 50.627 30.225499999999997Q51.9395 30.823999999999998 52.685 31.958Q53.4305 33.092 53.4305 34.708999999999996Q53.4305 36.367999999999995 52.61150000000001 37.5545Q51.792500000000004 38.741 50.322500000000005 39.370999999999995Q48.8525 40.001 46.8575 40.001Q44.5685 40.001 42.794 39.224Q41.0195 38.446999999999996 40.2215 37.25Q40.0745 37.019 40.022000000000006 36.788Q39.969500000000004 36.556999999999995 40.2635 36.367999999999995L42.5315 34.834999999999994Q42.9095 34.562 43.2245 34.919Q43.6445 35.401999999999994 44.075 35.821999999999996Q44.5055 36.242 45.051500000000004 36.48349999999999Q45.597500000000004 36.724999999999994 46.353500000000004 36.724999999999994Q47.1305 36.724999999999994 47.666 36.473Q48.2015 36.221 48.474500000000006 35.790499999999994Q48.7475 35.36 48.7475 34.855999999999995Q48.7475 34.373 48.506 33.932Q48.2645 33.491 47.75 33.217999999999996Q47.2355 32.94499999999999 46.4165 32.94499999999999Q45.9335 32.94499999999999 45.482 33.071Q45.0305 33.196999999999996 44.316500000000005 33.51199999999999Q44.106500000000004 33.596 44.012 33.596Q43.917500000000004 33.596 43.6865 33.47L41.1875 32.126Q40.9565 31.999999999999996 40.925 31.810999999999996Q40.8935 31.621999999999996 40.914500000000004 31.327999999999996L41.5235 24.838999999999995Q41.5655 24.481999999999996 41.744 24.345499999999994Q41.9225 24.208999999999996 42.4685 24.208999999999996Z"/></svg>